<svg xmlns="http://www.w3.org/2000/svg" width="1080" height="1350" viewBox="760 120 880 1100" fill="none" xmlns:c2pa="http://c2pa.org/manifest"><metadata><c2pa:manifest>AAAWgmp1bWIAAAAeanVtZGMycGEAEQAQgAAAqgA4m3EDYzJwYQAAABZcanVtYgAAAEdqdW1kYzJtYQARABCAAACqADibcQN1cm46YzJwYToxZGU2NjY1YS03MTFkLTQyNjAtOTJjNC00MDA2YjE1ZDY1NjMAAAADl2p1bWIAAAApanVtZGMyYXMAEQAQgAAAqgA4m3EDYzJwYS5hc3NlcnRpb25zAAAAALxqdW1iAAAARGp1bWRjYm9yABEAEIAAAKoAOJtxE2MycGEuaW5ncmVkaWVudC52MwAAAAAYYzJzaOfmrOrG7UKwjQxtb/YnH8YAAABwY2JvcqNpZGM6Zm9ybWF0bWltYWdlL3N2Zyt4bWxqaW5zdGFuY2VJRHgseG1wOmlpZDo3NWJjNzI1ZC1jZTVjLTQwZjQtYWM1OC01MmY0ZTk2ZjFhYjdscmVsYXRpb25zaGlwaHBhcmVudE9mAAAB4mp1bWIAAABBanVtZGNib3IAEQAQgAAAqgA4m3ETYzJwYS5hY3Rpb25zLnYyAAAAABhjMnNoqJEZdOM6ggRr+IAbGCJs7QAAAZljYm9yomdhY3Rpb25zgqJmYWN0aW9ua2MycGEub3BlbmVkanBhcmFtZXRlcnOha2luZ3JlZGllbnRzgaJjdXJseC1zZWxmI2p1bWJmPWMycGEuYXNzZXJ0aW9ucy9jMnBhLmluZ3JlZGllbnQudjNkaGFzaFggFhdbKu3hTfIH7PMBc5qA4xy1cvZ2Xp5Cyciv5TDETR2kZmFjdGlvbngdY29tLmFudGhyb3BpYy5jbGF1ZGUucHJvdmlkZWRqcGFyYW1ldGVyc6F4H2NvbS5hbnRocm9waWMub3JpZ2luLWNvbmZpZGVuY2VndW5rbm93bmtkZXNjcmlwdGlvbnhmQ2xhdWRlIHByb3ZpZGVkIHRoaXMgZmlsZSBhdCB0aGUgcmVxdWVzdCBvZiBhIHVzZXIgYW5kIG1heSBoYXZlIGNyZWF0ZWQgb3IgbW9kaWZpZWQgdGhlIGZpbGUgY29udGVudHMubXNvZnR3YXJlQWdlbnShZG5hbWVmQ2xhdWRlcmFsbEFjdGlvbnNJbmNsdWRlZPUAAADIanVtYgAAAEBqdW1kY2JvcgARABCAAACqADibcRNjMnBhLmhhc2guZGF0YQAAAAAYYzJzaPzjEsQ5zPgqSI/+UGwQacsAAACAY2JvcqVjYWxnZnNoYTI1NmNwYWRNAAAAAAAAAAAAAAAAAGRoYXNoWCCSfadCpJ2WyRSq4TWeetCzYgw1xmrORqaiyfUpSWDzYmRuYW1lbmp1bWJmIG1hbmlmZXN0amV4Y2x1c2lvbnOBomVzdGFydBipZmxlbmd0aBkeBAAAAj5qdW1iAAAAJ2p1bWRjMmNsABEAEIAAAKoAOJtxA2MycGEuY2xhaW0udjIAAAACD2Nib3KlY2FsZ2ZzaGEyNTZpc2lnbmF0dXJleE1zZWxmI2p1bWJmPS9jMnBhL3VybjpjMnBhOjFkZTY2NjVhLTcxMWQtNDI2MC05MmM0LTQwMDZiMTVkNjU2My9jMnBhLnNpZ25hdHVyZWppbnN0YW5jZUlEeCx4bXA6aWlkOjVmZDg1ZjQxLTQwMjItNDZmZC05MWM1LWYyYzgxY2Y2ODA4NHJjcmVhdGVkX2Fzc2VydGlvbnODomN1cmx4LXNlbGYjanVtYmY9YzJwYS5hc3NlcnRpb25zL2MycGEuaW5ncmVkaWVudC52M2RoYXNoWCAWF1sq7eFN8gfs8wFzmoDjHLVy9nZenkLJyK/lMMRNHaJjdXJseCpzZWxmI2p1bWJmPWMycGEuYXNzZXJ0aW9ucy9jMnBhLmFjdGlvbnMudjJkaGFzaFggRVJI9JLoKTchnq46ubWsz6gKPOoPoj5pCY8e6uWgC3GiY3VybHgpc2VsZiNqdW1iZj1jMnBhLmFzc2VydGlvbnMvYzJwYS5oYXNoLmRhdGFkaGFzaFggleZtdIsy3sdosI/H+1VcMYjCiDUgM+5CNnCNSHW5QEJ0Y2xhaW1fZ2VuZXJhdG9yX2luZm+jZG5hbWVvQW50aHJvcGljIEZpbGVzZ3ZlcnNpb25lMS4wLjBrc3BlY1ZlcnNpb25lMi40LjAAABA4anVtYgAAAChqdW1kYzJjcwARABCAAACqADibcQNjMnBhLnNpZ25hdHVyZQAAABAIY2JvctKEWQISogEmGCFZAgowggIGMIIBjaADAgECAhRA5aAK7sI50L64g/oGQgU9Z1UTADAKBggqhkjOPQQDAzBJMRcwFQYDVQQKEw5BbnRocm9waWMsIFBCQzEuMCwGA1UEAxMlQW50aHJvcGljIENvbnRlbnQgQ3JlZGVudGlhbHMgUm9vdCBDQTAeFw0yNjA4MDcxODQzNTZaFw0yODA4MDYxOTQzNTZaMEQxFzAVBgNVBAoTDkFudGhyb3BpYywgUEJDMSkwJwYDVQQDEyBBbnRocm9waWMgQ2xhdWRlIENvbnRlbnQgU2lnbmluZzBZMBMGByqGSM49AgEGCCqGSM49AwEHA0IABJh6CmvLUBgFFNU0vUKlOVtE6djd17L5SuwX0LemFisBM3dkd/3cyjxFA3Qo5S46fX0/ihY0VZ7mfb9KF703t5OjWDBWMA4GA1UdDwEB/wQEAwIHgDAVBgNVHSUEDjAMBgorBgEEAYPoXgIBMAwGA1UdEwEB/wQCMAAwHwYDVR0jBBgwFoAUzlHiBIFOZFsj+OPEz5o+nMHXXMIwCgYIKoZIzj0EAwMDZwAwZAIwMXMdFJ4BetLLVY7ORuE9noqbbAZOZn/aArXyTwFAZfKrPzxF2vPoJNf1+UCdg1XGAjBwX1zd9WGqYkqmL5SFqw1QySjr1zJfpJM9+1rdDwSPLMOPOjKuiXjoU/pUUeG9RwmhY3BhZFkNngAAAAAAAAAAAAAAAAAAAAAAAAAAAAAAAAAAAAAAAAAAAAAAAAAAAAAAAAAAAAAAAAAAAAAAAAAAAAAAAAAAAAAAAAAAAAAAAAAAAAAAAAAAAAAAAAAAAAAAAAAAAAAAAAAAAAAAAAAAAAAAAAAAAAAAAAAAAAAAAAAAAAAAAAAAAAAAAAAAAAAAAAAAAAAAAAAAAAAAAAAAAAAAAAAAAAAAAAAAAAAAAAAAAAAAAAAAAAAAAAAAAAAAAAAAAAAAAAAAAAAAAAAAAAAAAAAAAAAAAAAAAAAAAAAAAAAAAAAAAAAAAAAAAAAAAAAAAAAAAAAAAAAAAAAAAAAAAAAAAAAAAAAAAAAAAAAAAAAAAAAAAAAAAAAAAAAAAAAAAAAAAAAAAAAAAAAAAAAAAAAAAAAAAAAAAAAAAAAAAAAAAAAAAAAAAAAAAAAAAAAAAAAAAAAAAAAAAAAAAAAAAAAAAAAAAAAAAAAAAAAAAAAAAAAAAAAAAAAAAAAAAAAAAAAAAAAAAAAAAAAAAAAAAAAAAAAAAAAAAAAAAAAAAAAAAAAAAAAAAAAAAAAAAAAAAAAAAAAAAAAAAAAAAAAAAAAAAAAAAAAAAAAAAAAAAAAAAAAAAAAAAAAAAAAAAAAAAAAAAAAAAAAAAAAAAAAAAAAAAAAAAAAAAAAAAAAAAAAAAAAAAAAAAAAAAAAAAAAAAAAAAAAAAAAAAAAAAAAAAAAAAAAAAAAAAAAAAAAAAAAAAAAAAAAAAAAAAAAAAAAAAAAAAAAAAAAAAAAAAAAAAAAAAAAAAAAAAAAAAAAAAAAAAAAAAAAAAAAAAAAAAAAAAAAAAAAAAAAAAAAAAAAAAAAAAAAAAAAAAAAAAAAAAAAAAAAAAAAAAAAAAAAAAAAAAAAAAAAAAAAAAAAAAAAAAAAAAAAAAAAAAAAAAAAAAAAAAAAAAAAAAAAAAAAAAAAAAAAAAAAAAAAAAAAAAAAAAAAAAAAAAAAAAAAAAAAAAAAAAAAAAAAAAAAAAAAAAAAAAAAAAAAAAAAAAAAAAAAAAAAAAAAAAAAAAAAAAAAAAAAAAAAAAAAAAAAAAAAAAAAAAAAAAAAAAAAAAAAAAAAAAAAAAAAAAAAAAAAAAAAAAAAAAAAAAAAAAAAAAAAAAAAAAAAAAAAAAAAAAAAAAAAAAAAAAAAAAAAAAAAAAAAAAAAAAAAAAAAAAAAAAAAAAAAAAAAAAAAAAAAAAAAAAAAAAAAAAAAAAAAAAAAAAAAAAAAAAAAAAAAAAAAAAAAAAAAAAAAAAAAAAAAAAAAAAAAAAAAAAAAAAAAAAAAAAAAAAAAAAAAAAAAAAAAAAAAAAAAAAAAAAAAAAAAAAAAAAAAAAAAAAAAAAAAAAAAAAAAAAAAAAAAAAAAAAAAAAAAAAAAAAAAAAAAAAAAAAAAAAAAAAAAAAAAAAAAAAAAAAAAAAAAAAAAAAAAAAAAAAAAAAAAAAAAAAAAAAAAAAAAAAAAAAAAAAAAAAAAAAAAAAAAAAAAAAAAAAAAAAAAAAAAAAAAAAAAAAAAAAAAAAAAAAAAAAAAAAAAAAAAAAAAAAAAAAAAAAAAAAAAAAAAAAAAAAAAAAAAAAAAAAAAAAAAAAAAAAAAAAAAAAAAAAAAAAAAAAAAAAAAAAAAAAAAAAAAAAAAAAAAAAAAAAAAAAAAAAAAAAAAAAAAAAAAAAAAAAAAAAAAAAAAAAAAAAAAAAAAAAAAAAAAAAAAAAAAAAAAAAAAAAAAAAAAAAAAAAAAAAAAAAAAAAAAAAAAAAAAAAAAAAAAAAAAAAAAAAAAAAAAAAAAAAAAAAAAAAAAAAAAAAAAAAAAAAAAAAAAAAAAAAAAAAAAAAAAAAAAAAAAAAAAAAAAAAAAAAAAAAAAAAAAAAAAAAAAAAAAAAAAAAAAAAAAAAAAAAAAAAAAAAAAAAAAAAAAAAAAAAAAAAAAAAAAAAAAAAAAAAAAAAAAAAAAAAAAAAAAAAAAAAAAAAAAAAAAAAAAAAAAAAAAAAAAAAAAAAAAAAAAAAAAAAAAAAAAAAAAAAAAAAAAAAAAAAAAAAAAAAAAAAAAAAAAAAAAAAAAAAAAAAAAAAAAAAAAAAAAAAAAAAAAAAAAAAAAAAAAAAAAAAAAAAAAAAAAAAAAAAAAAAAAAAAAAAAAAAAAAAAAAAAAAAAAAAAAAAAAAAAAAAAAAAAAAAAAAAAAAAAAAAAAAAAAAAAAAAAAAAAAAAAAAAAAAAAAAAAAAAAAAAAAAAAAAAAAAAAAAAAAAAAAAAAAAAAAAAAAAAAAAAAAAAAAAAAAAAAAAAAAAAAAAAAAAAAAAAAAAAAAAAAAAAAAAAAAAAAAAAAAAAAAAAAAAAAAAAAAAAAAAAAAAAAAAAAAAAAAAAAAAAAAAAAAAAAAAAAAAAAAAAAAAAAAAAAAAAAAAAAAAAAAAAAAAAAAAAAAAAAAAAAAAAAAAAAAAAAAAAAAAAAAAAAAAAAAAAAAAAAAAAAAAAAAAAAAAAAAAAAAAAAAAAAAAAAAAAAAAAAAAAAAAAAAAAAAAAAAAAAAAAAAAAAAAAAAAAAAAAAAAAAAAAAAAAAAAAAAAAAAAAAAAAAAAAAAAAAAAAAAAAAAAAAAAAAAAAAAAAAAAAAAAAAAAAAAAAAAAAAAAAAAAAAAAAAAAAAAAAAAAAAAAAAAAAAAAAAAAAAAAAAAAAAAAAAAAAAAAAAAAAAAAAAAAAAAAAAAAAAAAAAAAAAAAAAAAAAAAAAAAAAAAAAAAAAAAAAAAAAAAAAAAAAAAAAAAAAAAAAAAAAAAAAAAAAAAAAAAAAAAAAAAAAAAAAAAAAAAAAAAAAAAAAAAAAAAAAAAAAAAAAAAAAAAAAAAAAAAAAAAAAAAAAAAAAAAAAAAAAAAAAAAAAAAAAAAAAAAAAAAAAAAAAAAAAAAAAAAAAAAAAAAAAAAAAAAAAAAAAAAAAAAAAAAAAAAAAAAAAAAAAAAAAAAAAAAAAAAAAAAAAAAAAAAAAAAAAAAAAAAAAAAAAAAAAAAAAAAAAAAAAAAAAAAAAAAAAAAAAAAAAAAAAAAAAAAAAAAAAAAAAAAAAAAAAAAAAAAAAAAAAAAAAAAAAAAAAAAAAAAAAAAAAAAAAAAAAAAAAAAAAAAAAAAAAAAAAAAAAAAAAAAAAAAAAAAAAAAAAAAAAAAAAAAAAAAAAAAAAAAAAAAAAAAAAAAAAAAAAAAAAAAAAAAAAAAAAAAAAAAAAAAAAAAAAAAAAAAAAAAAAAAAAAAAAAAAAAAAAAAAAAAAAAAAAAAAAAAAAAAAAAAAAAAAAAAAAAAAAAAAAAAAAAAAAAAAAAAAAAAAAAAAAAAAAAAAAAAAAAAAAAAAAAAAAAAAAAAAAAAAAAAAAAAAAAAAAAAAAAAAAAAAAAAAAAAAAAAAAAAAAAAAAAAAAAAAAAAAAAAAAAAAAAAAAAAAAAAAAAAAAAAAAAAAAAAAAAAAAAAAAAAAAAAAAAAAAAAAAAAAAAAAAAAAAAAAAAAAAAAAAAAAAAAAAAAAAAAAAAAAAAAAAAAAAAAAAAAAAAAAAAAAAAAAAAAAAAAAAAAAAAAAAAAAAAAAAAAAAAAAAAAAAAAAAAAAAAAAAAAAAAAAAAAAAAAAAAAAAAAAAAAAAAAAAAAAAAAAAAAAAAAAAAAAAAAAAAAAAAAAAAAAAAAAAAAAAAAAAAAAAAAAAAAAAAAAAAAAAAAAAAAAAAAAAAAAAAAAAAAAAAAAAAAAAAAAAAAAAAAAAAAAAAAAAAAAAAAAAAAAAAAAAAAAAAAAAAAAAAAAAAAAAAAAAAAAAAAAAAAAAAAAAAAAAAAAAAAAAAAAAAAAAAAAAAAAAAAAAAAAAAAAAAAAAAAAAAAAAAAAAAAAAAAAAAAAAAAAAAAAAAAAAAAAAAAAAAAAAAAAAAAAAAAAAAAAAAAAAAAAAAAAAAAAAAAAAAAAAAAAAAAAAAAAAAAAAAAAAAAAAAAAAAAAAAAAAAAAAAAAAAAAAAAAAAAAAAAAAAAAAAAAAAAAAAAAAAAAAAAAAAAAAAAAAAAAAAAAAAAAAAAAAAAAAAAAAAAAAAAAAAAAAAAAAAAAAAAAAAAAAAAAAAAAAAAAAAAAAAAAAAAAAAAAAAAAAAAAAAAAAAAAAAAAAAAAAAAAAAAAAAAAAAAAAAAAAAAAAAAAAAAAAAAAAAAAAAAAAAAAAAAAAAAAAAAAAAAAAAAAAAAAAAAAAAAAAAAAAAAAAAAAAAAAAAAAAAAAAAAAAAAAAAAAAAAAAAAAAAAAAAAAAAAAAAAAAAAAAAAAAAAAAAAAAAAAAAAAAAAAAAAAAAAAAAAAAAAAAAAAAAAAAAAAAAAAAAAAAAAAAAAAAAAAAAAAAAAAAAAAAAAAAAAAAAAAAAAAAAAAAAAAAAAAAAAAAAAAAAAAAAAAAAAAAAAAAAAAAAAAAAAAAAAAAAAAAAAAAAAAAAAAAAAAAAAAAAAAAAAAAAAAAAAAAAAAAAAAAAAAAAAAAAAAAAAAAAAAAAAAAAAAAAAAAAAAAAAAAAAAAAAAAAAAAAAAAAAAAAAAAAAAAAAAAAAAAAAAAAAAAAAAAAAAAAAAAAAAAAAAAAAAAAAAAAAAAAAAAAAAAAAAAAAAAAAAAAAAAAAAAAAAAAAAAAAAAAAAAAAAAAAAPZYQFnj9ISod5OIgpLbMTB/rkrjvRvhkiO0QjscKzauzPZxlfp4mn6NApLVbiENVcfdmGhmdGAMSDpBPLhJ9OFonxs=</c2pa:manifest></metadata><g id="layer-texture"><defs><pattern id="k" width="80" height="80" patternUnits="userSpaceOnUse"><g fill="none" stroke="#D6A640" stroke-width="2"><ellipse cx="20" cy="20" rx="23" ry="10.4" transform="rotate(45 20 20)"></ellipse><ellipse cx="60" cy="60" rx="23" ry="10.4" transform="rotate(45 60 60)"></ellipse><ellipse cx="60" cy="20" rx="23" ry="10.4" transform="rotate(-45 60 20)"></ellipse><ellipse cx="20" cy="60" rx="23" ry="10.4" transform="rotate(-45 20 60)"></ellipse></g></pattern></defs><rect x="-600" y="-600" width="3600" height="2400" fill="#0F0D0A"></rect><rect x="-600" y="-600" width="3600" height="2400" fill="url(#k)" opacity=".06"></rect></g><g id="layer-illustration"><g><path d="M280 1080Q740 1120 1200 1070Q1660 1120 2120 1080V1100Q1660 1140 1200 1090Q740 1140 280 1100Z" fill="#3A3226"></path>
 <path d="M300 190Q750 150 1200 205V1060Q750 1020 300 1060Z" fill="#17140F" stroke="#3A3226" stroke-width="2"></path>
 <path d="M2100 190Q1650 150 1200 205V1060Q1650 1020 2100 1060Z" fill="#17140F" stroke="#3A3226" stroke-width="2"></path>
 <path d="M1200 205V1060" stroke="#0F0D0A" stroke-width="10" opacity=".6"></path>
 <g stroke="#3A3226" stroke-width="2" fill="none"><path d="M292 1068Q745 1030 1200 1072Q1655 1030 2108 1068"></path><path d="M286 1076Q742 1040 1200 1080Q1658 1040 2114 1076"></path></g></g><rect x="820" y="230" width="760" height="760" rx="36" stroke="#3A3226" stroke-width="2" fill="#1C1812" fill-opacity=".6"></rect><path d="M890 300C980 380 1060 400 1120 470S1230 610 1290 680 1420 800 1510 920" stroke="#34466E" stroke-width="54" stroke-linecap="round" opacity=".55"></path><path d="M890 300C980 380 1060 400 1120 470S1230 610 1290 680 1420 800 1510 920" stroke="#F2ECDF" stroke-width="1.5" stroke-dasharray="2 10" stroke-linecap="round" opacity=".6"></path><g fill="none" stroke="#D6A640" stroke-width="1.6" opacity=".55"><g transform="translate(1351.4 631.6) scale(1.1963810818701806)"><ellipse cx="-7" cy="-7" rx="8" ry="3.8" transform="rotate(45 -7 -7)"></ellipse><ellipse cx="7" cy="7" rx="8" ry="3.8" transform="rotate(45 7 7)"></ellipse><ellipse cx="7" cy="-7" rx="8" ry="3.8" transform="rotate(-45 7 -7)"></ellipse><ellipse cx="-7" cy="7" rx="8" ry="3.8" transform="rotate(-45 -7 7)"></ellipse></g><g transform="translate(1289.7 819.1) scale(1.117804296005335)"><ellipse cx="-7" cy="-7" rx="8" ry="3.8" transform="rotate(45 -7 -7)"></ellipse><ellipse cx="7" cy="7" rx="8" ry="3.8" transform="rotate(45 7 7)"></ellipse><ellipse cx="7" cy="-7" rx="8" ry="3.8" transform="rotate(-45 7 -7)"></ellipse><ellipse cx="-7" cy="7" rx="8" ry="3.8" transform="rotate(-45 -7 7)"></ellipse></g><g transform="translate(1321.4 588.8) scale(1.7301616390516625)"><ellipse cx="-7" cy="-7" rx="8" ry="3.8" transform="rotate(45 -7 -7)"></ellipse><ellipse cx="7" cy="7" rx="8" ry="3.8" transform="rotate(45 7 7)"></ellipse><ellipse cx="7" cy="-7" rx="8" ry="3.8" transform="rotate(-45 7 -7)"></ellipse><ellipse cx="-7" cy="7" rx="8" ry="3.8" transform="rotate(-45 -7 7)"></ellipse></g><g transform="translate(1208.6 889.3) scale(1.519651298662323)"><ellipse cx="-7" cy="-7" rx="8" ry="3.8" transform="rotate(45 -7 -7)"></ellipse><ellipse cx="7" cy="7" rx="8" ry="3.8" transform="rotate(45 7 7)"></ellipse><ellipse cx="7" cy="-7" rx="8" ry="3.8" transform="rotate(-45 7 -7)"></ellipse><ellipse cx="-7" cy="7" rx="8" ry="3.8" transform="rotate(-45 -7 7)"></ellipse></g><g transform="translate(1422.5 499.3) scale(1.0373158725326097)"><ellipse cx="-7" cy="-7" rx="8" ry="3.8" transform="rotate(45 -7 -7)"></ellipse><ellipse cx="7" cy="7" rx="8" ry="3.8" transform="rotate(45 7 7)"></ellipse><ellipse cx="7" cy="-7" rx="8" ry="3.8" transform="rotate(-45 7 -7)"></ellipse><ellipse cx="-7" cy="7" rx="8" ry="3.8" transform="rotate(-45 -7 7)"></ellipse></g><g transform="translate(1237.9 761.3) scale(1.6900668030977872)"><ellipse cx="-7" cy="-7" rx="8" ry="3.8" transform="rotate(45 -7 -7)"></ellipse><ellipse cx="7" cy="7" rx="8" ry="3.8" transform="rotate(45 7 7)"></ellipse><ellipse cx="7" cy="-7" rx="8" ry="3.8" transform="rotate(-45 7 -7)"></ellipse><ellipse cx="-7" cy="7" rx="8" ry="3.8" transform="rotate(-45 -7 7)"></ellipse></g><g transform="translate(1148.2 407.3) scale(1.7180727905762128)"><ellipse cx="-7" cy="-7" rx="8" ry="3.8" transform="rotate(45 -7 -7)"></ellipse><ellipse cx="7" cy="7" rx="8" ry="3.8" transform="rotate(45 7 7)"></ellipse><ellipse cx="7" cy="-7" rx="8" ry="3.8" transform="rotate(-45 7 -7)"></ellipse><ellipse cx="-7" cy="7" rx="8" ry="3.8" transform="rotate(-45 -7 7)"></ellipse></g><g transform="translate(1480.1 619.8) scale(1.0489953622678252)"><ellipse cx="-7" cy="-7" rx="8" ry="3.8" transform="rotate(45 -7 -7)"></ellipse><ellipse cx="7" cy="7" rx="8" ry="3.8" transform="rotate(45 7 7)"></ellipse><ellipse cx="7" cy="-7" rx="8" ry="3.8" transform="rotate(-45 7 -7)"></ellipse><ellipse cx="-7" cy="7" rx="8" ry="3.8" transform="rotate(-45 -7 7)"></ellipse></g><g transform="translate(1089.5 630.9) scale(1.4526393707866216)"><ellipse cx="-7" cy="-7" rx="8" ry="3.8" transform="rotate(45 -7 -7)"></ellipse><ellipse cx="7" cy="7" rx="8" ry="3.8" transform="rotate(45 7 7)"></ellipse><ellipse cx="7" cy="-7" rx="8" ry="3.8" transform="rotate(-45 7 -7)"></ellipse><ellipse cx="-7" cy="7" rx="8" ry="3.8" transform="rotate(-45 -7 7)"></ellipse></g><g transform="translate(1023.9 878.3) scale(1.3120531151649106)"><ellipse cx="-7" cy="-7" rx="8" ry="3.8" transform="rotate(45 -7 -7)"></ellipse><ellipse cx="7" cy="7" rx="8" ry="3.8" transform="rotate(45 7 7)"></ellipse><ellipse cx="7" cy="-7" rx="8" ry="3.8" transform="rotate(-45 7 -7)"></ellipse><ellipse cx="-7" cy="7" rx="8" ry="3.8" transform="rotate(-45 -7 7)"></ellipse></g><g transform="translate(1439.6 699.2) scale(1.4709147745938178)"><ellipse cx="-7" cy="-7" rx="8" ry="3.8" transform="rotate(45 -7 -7)"></ellipse><ellipse cx="7" cy="7" rx="8" ry="3.8" transform="rotate(45 7 7)"></ellipse><ellipse cx="7" cy="-7" rx="8" ry="3.8" transform="rotate(-45 7 -7)"></ellipse><ellipse cx="-7" cy="7" rx="8" ry="3.8" transform="rotate(-45 -7 7)"></ellipse></g><g transform="translate(1035.7 667.3) scale(1.2155290971189077)"><ellipse cx="-7" cy="-7" rx="8" ry="3.8" transform="rotate(45 -7 -7)"></ellipse><ellipse cx="7" cy="7" rx="8" ry="3.8" transform="rotate(45 7 7)"></ellipse><ellipse cx="7" cy="-7" rx="8" ry="3.8" transform="rotate(-45 7 -7)"></ellipse><ellipse cx="-7" cy="7" rx="8" ry="3.8" transform="rotate(-45 -7 7)"></ellipse></g><g transform="translate(921.3 548.5) scale(1.038214439794621)"><ellipse cx="-7" cy="-7" rx="8" ry="3.8" transform="rotate(45 -7 -7)"></ellipse><ellipse cx="7" cy="7" rx="8" ry="3.8" transform="rotate(45 7 7)"></ellipse><ellipse cx="7" cy="-7" rx="8" ry="3.8" transform="rotate(-45 7 -7)"></ellipse><ellipse cx="-7" cy="7" rx="8" ry="3.8" transform="rotate(-45 -7 7)"></ellipse></g><g transform="translate(1015.2 697.4) scale(1.0298275355527433)"><ellipse cx="-7" cy="-7" rx="8" ry="3.8" transform="rotate(45 -7 -7)"></ellipse><ellipse cx="7" cy="7" rx="8" ry="3.8" transform="rotate(45 7 7)"></ellipse><ellipse cx="7" cy="-7" rx="8" ry="3.8" transform="rotate(-45 7 -7)"></ellipse><ellipse cx="-7" cy="7" rx="8" ry="3.8" transform="rotate(-45 -7 7)"></ellipse></g><g transform="translate(1277.1 432.7) scale(1.567033999103153)"><ellipse cx="-7" cy="-7" rx="8" ry="3.8" transform="rotate(45 -7 -7)"></ellipse><ellipse cx="7" cy="7" rx="8" ry="3.8" transform="rotate(45 7 7)"></ellipse><ellipse cx="7" cy="-7" rx="8" ry="3.8" transform="rotate(-45 7 -7)"></ellipse><ellipse cx="-7" cy="7" rx="8" ry="3.8" transform="rotate(-45 -7 7)"></ellipse></g><g transform="translate(1193 733.8) scale(1.1142437004151229)"><ellipse cx="-7" cy="-7" rx="8" ry="3.8" transform="rotate(45 -7 -7)"></ellipse><ellipse cx="7" cy="7" rx="8" ry="3.8" transform="rotate(45 7 7)"></ellipse><ellipse cx="7" cy="-7" rx="8" ry="3.8" transform="rotate(-45 7 -7)"></ellipse><ellipse cx="-7" cy="7" rx="8" ry="3.8" transform="rotate(-45 -7 7)"></ellipse></g><g transform="translate(1116.8 870.2) scale(1.006535391701884)"><ellipse cx="-7" cy="-7" rx="8" ry="3.8" transform="rotate(45 -7 -7)"></ellipse><ellipse cx="7" cy="7" rx="8" ry="3.8" transform="rotate(45 7 7)"></ellipse><ellipse cx="7" cy="-7" rx="8" ry="3.8" transform="rotate(-45 7 -7)"></ellipse><ellipse cx="-7" cy="7" rx="8" ry="3.8" transform="rotate(-45 -7 7)"></ellipse></g><g transform="translate(1472.6 700.4) scale(1.729905330929817)"><ellipse cx="-7" cy="-7" rx="8" ry="3.8" transform="rotate(45 -7 -7)"></ellipse><ellipse cx="7" cy="7" rx="8" ry="3.8" transform="rotate(45 7 7)"></ellipse><ellipse cx="7" cy="-7" rx="8" ry="3.8" transform="rotate(-45 7 -7)"></ellipse><ellipse cx="-7" cy="7" rx="8" ry="3.8" transform="rotate(-45 -7 7)"></ellipse></g><g transform="translate(1007.9 652.5) scale(0.9471108749016289)"><ellipse cx="-7" cy="-7" rx="8" ry="3.8" transform="rotate(45 -7 -7)"></ellipse><ellipse cx="7" cy="7" rx="8" ry="3.8" transform="rotate(45 7 7)"></ellipse><ellipse cx="7" cy="-7" rx="8" ry="3.8" transform="rotate(-45 7 -7)"></ellipse><ellipse cx="-7" cy="7" rx="8" ry="3.8" transform="rotate(-45 -7 7)"></ellipse></g><g transform="translate(1341.3 608.8) scale(0.9294579204446245)"><ellipse cx="-7" cy="-7" rx="8" ry="3.8" transform="rotate(45 -7 -7)"></ellipse><ellipse cx="7" cy="7" rx="8" ry="3.8" transform="rotate(45 7 7)"></ellipse><ellipse cx="7" cy="-7" rx="8" ry="3.8" transform="rotate(-45 7 -7)"></ellipse><ellipse cx="-7" cy="7" rx="8" ry="3.8" transform="rotate(-45 -7 7)"></ellipse></g><g transform="translate(956.3 734) scale(1.7037206731771313)"><ellipse cx="-7" cy="-7" rx="8" ry="3.8" transform="rotate(45 -7 -7)"></ellipse><ellipse cx="7" cy="7" rx="8" ry="3.8" transform="rotate(45 7 7)"></ellipse><ellipse cx="7" cy="-7" rx="8" ry="3.8" transform="rotate(-45 7 -7)"></ellipse><ellipse cx="-7" cy="7" rx="8" ry="3.8" transform="rotate(-45 -7 7)"></ellipse></g><g transform="translate(1146.9 443.8) scale(1.5548993866936298)"><ellipse cx="-7" cy="-7" rx="8" ry="3.8" transform="rotate(45 -7 -7)"></ellipse><ellipse cx="7" cy="7" rx="8" ry="3.8" transform="rotate(45 7 7)"></ellipse><ellipse cx="7" cy="-7" rx="8" ry="3.8" transform="rotate(-45 7 -7)"></ellipse><ellipse cx="-7" cy="7" rx="8" ry="3.8" transform="rotate(-45 -7 7)"></ellipse></g><g transform="translate(1452.3 542.9) scale(1.1112729452189738)"><ellipse cx="-7" cy="-7" rx="8" ry="3.8" transform="rotate(45 -7 -7)"></ellipse><ellipse cx="7" cy="7" rx="8" ry="3.8" transform="rotate(45 7 7)"></ellipse><ellipse cx="7" cy="-7" rx="8" ry="3.8" transform="rotate(-45 7 -7)"></ellipse><ellipse cx="-7" cy="7" rx="8" ry="3.8" transform="rotate(-45 -7 7)"></ellipse></g><g transform="translate(1137.2 865.4) scale(1.402898571503254)"><ellipse cx="-7" cy="-7" rx="8" ry="3.8" transform="rotate(45 -7 -7)"></ellipse><ellipse cx="7" cy="7" rx="8" ry="3.8" transform="rotate(45 7 7)"></ellipse><ellipse cx="7" cy="-7" rx="8" ry="3.8" transform="rotate(-45 7 -7)"></ellipse><ellipse cx="-7" cy="7" rx="8" ry="3.8" transform="rotate(-45 -7 7)"></ellipse></g><g transform="translate(1348.6 559) scale(1.0787636423751374)"><ellipse cx="-7" cy="-7" rx="8" ry="3.8" transform="rotate(45 -7 -7)"></ellipse><ellipse cx="7" cy="7" rx="8" ry="3.8" transform="rotate(45 7 7)"></ellipse><ellipse cx="7" cy="-7" rx="8" ry="3.8" transform="rotate(-45 7 -7)"></ellipse><ellipse cx="-7" cy="7" rx="8" ry="3.8" transform="rotate(-45 -7 7)"></ellipse></g><g transform="translate(1001.7 705.8) scale(1.0218508772755517)"><ellipse cx="-7" cy="-7" rx="8" ry="3.8" transform="rotate(45 -7 -7)"></ellipse><ellipse cx="7" cy="7" rx="8" ry="3.8" transform="rotate(45 7 7)"></ellipse><ellipse cx="7" cy="-7" rx="8" ry="3.8" transform="rotate(-45 7 -7)"></ellipse><ellipse cx="-7" cy="7" rx="8" ry="3.8" transform="rotate(-45 -7 7)"></ellipse></g><g transform="translate(1188.2 403.5) scale(1.3020021114517024)"><ellipse cx="-7" cy="-7" rx="8" ry="3.8" transform="rotate(45 -7 -7)"></ellipse><ellipse cx="7" cy="7" rx="8" ry="3.8" transform="rotate(45 7 7)"></ellipse><ellipse cx="7" cy="-7" rx="8" ry="3.8" transform="rotate(-45 7 -7)"></ellipse><ellipse cx="-7" cy="7" rx="8" ry="3.8" transform="rotate(-45 -7 7)"></ellipse></g><g transform="translate(979.6 717.3) scale(1.3695487217694042)"><ellipse cx="-7" cy="-7" rx="8" ry="3.8" transform="rotate(45 -7 -7)"></ellipse><ellipse cx="7" cy="7" rx="8" ry="3.8" transform="rotate(45 7 7)"></ellipse><ellipse cx="7" cy="-7" rx="8" ry="3.8" transform="rotate(-45 7 -7)"></ellipse><ellipse cx="-7" cy="7" rx="8" ry="3.8" transform="rotate(-45 -7 7)"></ellipse></g><g transform="translate(1067.2 637.5) scale(1.0824805516586458)"><ellipse cx="-7" cy="-7" rx="8" ry="3.8" transform="rotate(45 -7 -7)"></ellipse><ellipse cx="7" cy="7" rx="8" ry="3.8" transform="rotate(45 7 7)"></ellipse><ellipse cx="7" cy="-7" rx="8" ry="3.8" transform="rotate(-45 7 -7)"></ellipse><ellipse cx="-7" cy="7" rx="8" ry="3.8" transform="rotate(-45 -7 7)"></ellipse></g><g transform="translate(1153.3 329.7) scale(1.5955935371067316)"><ellipse cx="-7" cy="-7" rx="8" ry="3.8" transform="rotate(45 -7 -7)"></ellipse><ellipse cx="7" cy="7" rx="8" ry="3.8" transform="rotate(45 7 7)"></ellipse><ellipse cx="7" cy="-7" rx="8" ry="3.8" transform="rotate(-45 7 -7)"></ellipse><ellipse cx="-7" cy="7" rx="8" ry="3.8" transform="rotate(-45 -7 7)"></ellipse></g><g transform="translate(1470.6 729.4) scale(1.762998910679481)"><ellipse cx="-7" cy="-7" rx="8" ry="3.8" transform="rotate(45 -7 -7)"></ellipse><ellipse cx="7" cy="7" rx="8" ry="3.8" transform="rotate(45 7 7)"></ellipse><ellipse cx="7" cy="-7" rx="8" ry="3.8" transform="rotate(-45 7 -7)"></ellipse><ellipse cx="-7" cy="7" rx="8" ry="3.8" transform="rotate(-45 -7 7)"></ellipse></g><g transform="translate(1381.1 541.9) scale(1.2747935417804808)"><ellipse cx="-7" cy="-7" rx="8" ry="3.8" transform="rotate(45 -7 -7)"></ellipse><ellipse cx="7" cy="7" rx="8" ry="3.8" transform="rotate(45 7 7)"></ellipse><ellipse cx="7" cy="-7" rx="8" ry="3.8" transform="rotate(-45 7 -7)"></ellipse><ellipse cx="-7" cy="7" rx="8" ry="3.8" transform="rotate(-45 -7 7)"></ellipse></g><g transform="translate(1205.8 360.6) scale(1.0891141993823594)"><ellipse cx="-7" cy="-7" rx="8" ry="3.8" transform="rotate(45 -7 -7)"></ellipse><ellipse cx="7" cy="7" rx="8" ry="3.8" transform="rotate(45 7 7)"></ellipse><ellipse cx="7" cy="-7" rx="8" ry="3.8" transform="rotate(-45 7 -7)"></ellipse><ellipse cx="-7" cy="7" rx="8" ry="3.8" transform="rotate(-45 -7 7)"></ellipse></g><g transform="translate(1267.7 392.5) scale(0.9702710444296441)"><ellipse cx="-7" cy="-7" rx="8" ry="3.8" transform="rotate(45 -7 -7)"></ellipse><ellipse cx="7" cy="7" rx="8" ry="3.8" transform="rotate(45 7 7)"></ellipse><ellipse cx="7" cy="-7" rx="8" ry="3.8" transform="rotate(-45 7 -7)"></ellipse><ellipse cx="-7" cy="7" rx="8" ry="3.8" transform="rotate(-45 -7 7)"></ellipse></g><g transform="translate(1142.9 340.3) scale(1.1108188049037184)"><ellipse cx="-7" cy="-7" rx="8" ry="3.8" transform="rotate(45 -7 -7)"></ellipse><ellipse cx="7" cy="7" rx="8" ry="3.8" transform="rotate(45 7 7)"></ellipse><ellipse cx="7" cy="-7" rx="8" ry="3.8" transform="rotate(-45 7 -7)"></ellipse><ellipse cx="-7" cy="7" rx="8" ry="3.8" transform="rotate(-45 -7 7)"></ellipse></g><g transform="translate(1374.2 568.3) scale(1.6694452429837037)"><ellipse cx="-7" cy="-7" rx="8" ry="3.8" transform="rotate(45 -7 -7)"></ellipse><ellipse cx="7" cy="7" rx="8" ry="3.8" transform="rotate(45 7 7)"></ellipse><ellipse cx="7" cy="-7" rx="8" ry="3.8" transform="rotate(-45 7 -7)"></ellipse><ellipse cx="-7" cy="7" rx="8" ry="3.8" transform="rotate(-45 -7 7)"></ellipse></g><g transform="translate(1106.1 332.3) scale(1.2084901755754744)"><ellipse cx="-7" cy="-7" rx="8" ry="3.8" transform="rotate(45 -7 -7)"></ellipse><ellipse cx="7" cy="7" rx="8" ry="3.8" transform="rotate(45 7 7)"></ellipse><ellipse cx="7" cy="-7" rx="8" ry="3.8" transform="rotate(-45 7 -7)"></ellipse><ellipse cx="-7" cy="7" rx="8" ry="3.8" transform="rotate(-45 -7 7)"></ellipse></g><g transform="translate(1452.5 747.5) scale(1.5642743894963287)"><ellipse cx="-7" cy="-7" rx="8" ry="3.8" transform="rotate(45 -7 -7)"></ellipse><ellipse cx="7" cy="7" rx="8" ry="3.8" transform="rotate(45 7 7)"></ellipse><ellipse cx="7" cy="-7" rx="8" ry="3.8" transform="rotate(-45 7 -7)"></ellipse><ellipse cx="-7" cy="7" rx="8" ry="3.8" transform="rotate(-45 -7 7)"></ellipse></g><g transform="translate(1445.6 651.8) scale(1.6863297152205647)"><ellipse cx="-7" cy="-7" rx="8" ry="3.8" transform="rotate(45 -7 -7)"></ellipse><ellipse cx="7" cy="7" rx="8" ry="3.8" transform="rotate(45 7 7)"></ellipse><ellipse cx="7" cy="-7" rx="8" ry="3.8" transform="rotate(-45 7 -7)"></ellipse><ellipse cx="-7" cy="7" rx="8" ry="3.8" transform="rotate(-45 -7 7)"></ellipse></g><g transform="translate(993.8 668.8) scale(1.1083006456571638)"><ellipse cx="-7" cy="-7" rx="8" ry="3.8" transform="rotate(45 -7 -7)"></ellipse><ellipse cx="7" cy="7" rx="8" ry="3.8" transform="rotate(45 7 7)"></ellipse><ellipse cx="7" cy="-7" rx="8" ry="3.8" transform="rotate(-45 7 -7)"></ellipse><ellipse cx="-7" cy="7" rx="8" ry="3.8" transform="rotate(-45 -7 7)"></ellipse></g><g transform="translate(1073.1 887.8) scale(0.9011851386643808)"><ellipse cx="-7" cy="-7" rx="8" ry="3.8" transform="rotate(45 -7 -7)"></ellipse><ellipse cx="7" cy="7" rx="8" ry="3.8" transform="rotate(45 7 7)"></ellipse><ellipse cx="7" cy="-7" rx="8" ry="3.8" transform="rotate(-45 7 -7)"></ellipse><ellipse cx="-7" cy="7" rx="8" ry="3.8" transform="rotate(-45 -7 7)"></ellipse></g><g transform="translate(957 542.2) scale(0.9194218817813526)"><ellipse cx="-7" cy="-7" rx="8" ry="3.8" transform="rotate(45 -7 -7)"></ellipse><ellipse cx="7" cy="7" rx="8" ry="3.8" transform="rotate(45 7 7)"></ellipse><ellipse cx="7" cy="-7" rx="8" ry="3.8" transform="rotate(-45 7 -7)"></ellipse><ellipse cx="-7" cy="7" rx="8" ry="3.8" transform="rotate(-45 -7 7)"></ellipse></g><g transform="translate(1327.3 872.6) scale(1.0556786363065975)"><ellipse cx="-7" cy="-7" rx="8" ry="3.8" transform="rotate(45 -7 -7)"></ellipse><ellipse cx="7" cy="7" rx="8" ry="3.8" transform="rotate(45 7 7)"></ellipse><ellipse cx="7" cy="-7" rx="8" ry="3.8" transform="rotate(-45 7 -7)"></ellipse><ellipse cx="-7" cy="7" rx="8" ry="3.8" transform="rotate(-45 -7 7)"></ellipse></g><g transform="translate(947.1 693.5) scale(0.914341090167259)"><ellipse cx="-7" cy="-7" rx="8" ry="3.8" transform="rotate(45 -7 -7)"></ellipse><ellipse cx="7" cy="7" rx="8" ry="3.8" transform="rotate(45 7 7)"></ellipse><ellipse cx="7" cy="-7" rx="8" ry="3.8" transform="rotate(-45 7 -7)"></ellipse><ellipse cx="-7" cy="7" rx="8" ry="3.8" transform="rotate(-45 -7 7)"></ellipse></g><g transform="translate(1405.9 670.4) scale(1.576010903414349)"><ellipse cx="-7" cy="-7" rx="8" ry="3.8" transform="rotate(45 -7 -7)"></ellipse><ellipse cx="7" cy="7" rx="8" ry="3.8" transform="rotate(45 7 7)"></ellipse><ellipse cx="7" cy="-7" rx="8" ry="3.8" transform="rotate(-45 7 -7)"></ellipse><ellipse cx="-7" cy="7" rx="8" ry="3.8" transform="rotate(-45 -7 7)"></ellipse></g><g transform="translate(954.5 498.6) scale(1.5433366778244606)"><ellipse cx="-7" cy="-7" rx="8" ry="3.8" transform="rotate(45 -7 -7)"></ellipse><ellipse cx="7" cy="7" rx="8" ry="3.8" transform="rotate(45 7 7)"></ellipse><ellipse cx="7" cy="-7" rx="8" ry="3.8" transform="rotate(-45 7 -7)"></ellipse><ellipse cx="-7" cy="7" rx="8" ry="3.8" transform="rotate(-45 -7 7)"></ellipse></g></g><g stroke="#D6A640" stroke-width="4" stroke-linecap="round" stroke-linejoin="round"><path d="M870 940V320Q870 280 910 280H1530"></path><path d="M870 940H1490Q1530 940 1530 900V280"></path><path d="M870 940L1530 280"></path></g><path d="M870 731L881 742L870 753L859 742Z" fill="#D6A640"></path><path d="M870 533L881 544L870 555L859 544Z" fill="#D6A640"></path><path d="M1134 269L1145 280L1134 291L1123 280Z" fill="#17140F" stroke="#F2ECDF" stroke-width="3"></path><path d="M1332 269L1343 280L1332 291L1321 280Z" fill="#17140F" stroke="#F2ECDF" stroke-width="3"></path><path d="M1068 929L1079 940L1068 951L1057 940Z" fill="#D6A640"></path><path d="M1266 929L1277 940L1266 951L1255 940Z" fill="#D6A640"></path><path d="M1530 665L1541 676L1530 687L1519 676Z" fill="#17140F" stroke="#F2ECDF" stroke-width="3"></path><path d="M1530 467L1541 478L1530 489L1519 478Z" fill="#17140F" stroke="#F2ECDF" stroke-width="3"></path><path d="M949.2 849.8L960.2 860.8L949.2 871.8L938.2 860.8Z" fill="#D6A640"></path><path d="M1028.4 770.6L1039.4 781.6L1028.4 792.6L1017.4 781.6Z" fill="#D6A640"></path><path d="M1107.6 691.4L1118.6 702.4L1107.6 713.4L1096.6 702.4Z" fill="#D6A640"></path><path d="M1292.4 506.6L1303.4 517.6L1292.4 528.6L1281.4 517.6Z" fill="#17140F" stroke="#F2ECDF" stroke-width="3"></path><path d="M1371.6 427.4L1382.6 438.4L1371.6 449.4L1360.6 438.4Z" fill="#17140F" stroke="#F2ECDF" stroke-width="3"></path><path d="M1450.8 348.2L1461.8 359.2L1450.8 370.2L1439.8 359.2Z" fill="#17140F" stroke="#F2ECDF" stroke-width="3"></path><g transform="translate(910 900) scale(3.2)" fill="#D6A640"><ellipse cx="-7" cy="-7" rx="8" ry="3.8" transform="rotate(45 -7 -7)"></ellipse><ellipse cx="7" cy="7" rx="8" ry="3.8" transform="rotate(45 7 7)"></ellipse><ellipse cx="7" cy="-7" rx="8" ry="3.8" transform="rotate(-45 7 -7)"></ellipse><ellipse cx="-7" cy="7" rx="8" ry="3.8" transform="rotate(-45 -7 7)"></ellipse></g><g transform="translate(1490 320) scale(3.2)" fill="none" stroke="#F2ECDF" stroke-width="1.2"><ellipse cx="-7" cy="-7" rx="8" ry="3.8" transform="rotate(45 -7 -7)"></ellipse><ellipse cx="7" cy="7" rx="8" ry="3.8" transform="rotate(45 7 7)"></ellipse><ellipse cx="7" cy="-7" rx="8" ry="3.8" transform="rotate(-45 7 -7)"></ellipse><ellipse cx="-7" cy="7" rx="8" ry="3.8" transform="rotate(-45 -7 7)"></ellipse></g><circle cx="1050" cy="420" r="16" stroke="#F2ECDF" stroke-width="2"></circle><path d="M1050 413L1057 420L1050 427L1043 420Z" fill="#D6A640"></path><circle cx="1350" cy="760" r="16" stroke="#F2ECDF" stroke-width="2"></circle><path d="M1350 753L1357 760L1350 767L1343 760Z" fill="#D6A640"></path></g><g id="layer-details"><g stroke="#ADA38F" stroke-width="5" stroke-linecap="round" opacity=".55"><path d="M420 330h297.3"></path><path d="M420 356h272.9"></path><path d="M420 382h275.3"></path><path d="M420 408h286.6"></path><path d="M420 434h165"></path></g><g transform="translate(400 520) scale(0.45)" fill="#D6A640"><ellipse cx="-7" cy="-7" rx="8" ry="3.8" transform="rotate(45 -7 -7)"></ellipse><ellipse cx="7" cy="7" rx="8" ry="3.8" transform="rotate(45 7 7)"></ellipse><ellipse cx="7" cy="-7" rx="8" ry="3.8" transform="rotate(-45 7 -7)"></ellipse><ellipse cx="-7" cy="7" rx="8" ry="3.8" transform="rotate(-45 -7 7)"></ellipse></g><g stroke="#ADA38F" stroke-width="5" stroke-linecap="round" opacity=".55"><path d="M430 520h244.5"></path><path d="M430 546h246.2"></path><path d="M430 572h143"></path></g><path d="M430 610c60 6 150 4 250-3" stroke="#D6A640" stroke-width="3" stroke-linecap="round"></path><g stroke="#ADA38F" stroke-width="5" stroke-linecap="round" opacity=".55"><path d="M420 700h275.9"></path><path d="M420 726h246"></path><path d="M420 752h242.7"></path><path d="M420 778h276.8"></path><path d="M420 804h253.5"></path><path d="M420 830h165"></path></g><g stroke="#ADA38F" stroke-width="5" stroke-linecap="round" opacity=".55"><path d="M1690 380h274.9"></path><path d="M1690 406h255.1"></path><path d="M1690 432h253.4"></path><path d="M1690 458h165"></path></g><g transform="translate(1670 560) scale(0.45)" fill="#D6A640"><ellipse cx="-7" cy="-7" rx="8" ry="3.8" transform="rotate(45 -7 -7)"></ellipse><ellipse cx="7" cy="7" rx="8" ry="3.8" transform="rotate(45 7 7)"></ellipse><ellipse cx="7" cy="-7" rx="8" ry="3.8" transform="rotate(-45 7 -7)"></ellipse><ellipse cx="-7" cy="7" rx="8" ry="3.8" transform="rotate(-45 -7 7)"></ellipse></g><g stroke="#ADA38F" stroke-width="5" stroke-linecap="round" opacity=".55"><path d="M1700 560h240.2"></path><path d="M1700 586h240.7"></path><path d="M1700 612h143"></path></g><g stroke="#ADA38F" stroke-width="5" stroke-linecap="round" opacity=".55"><path d="M1690 690h288.8"></path><path d="M1690 716h254.4"></path><path d="M1690 742h294.3"></path><path d="M1690 768h243.2"></path><path d="M1690 794h281.4"></path><path d="M1690 820h264.4"></path><path d="M1690 846h165"></path></g><ellipse cx="870" cy="742" rx="42" ry="30" stroke="#D6A640" stroke-width="2.5" stroke-dasharray="7 7"></ellipse><path d="M826 742C760 740 700 560 690 540" stroke="#D6A640" stroke-width="2" stroke-dasharray="7 7"></path><path d="M2020 150H2060V470L2040 448L2020 470Z" fill="#D6A640"></path></g></svg>